<svg width="368" height="414" viewBox="0 0 368 414" fill="none" xmlns="http://www.w3.org/2000/svg">
<path d="M0.93758 414V394.319C0.93758 373.857 4.06284 355.504 10.3134 339.26C16.7202 322.859 24.924 307.708 34.9248 293.806C44.9257 279.749 55.4735 266.003 66.5681 252.57C77.3503 239.45 87.5856 226.017 97.2739 212.272C107.118 198.37 115.088 183.375 121.182 167.287C127.433 151.042 130.558 132.845 130.558 112.696C130.558 103.012 129.073 94.7334 126.104 87.8608C123.292 80.8319 117.354 77.3175 108.29 77.3175C94.5393 77.3175 87.6637 89.5789 87.6637 114.102V164.475H0.93758C0.781316 160.883 0.546921 156.822 0.234395 152.292C0.0781316 147.762 0 143.389 0 139.171C0 109.494 3.12527 84.3463 9.3758 63.7284C15.6263 42.9542 26.6429 27.1783 42.4255 16.4007C58.3643 5.46689 80.71 0 109.462 0C143.684 0 170.249 9.60611 189.157 28.8183C208.221 48.0306 217.753 75.4431 217.753 111.056C217.753 135.267 214.628 156.509 208.377 174.784C202.127 192.903 193.845 209.46 183.531 224.455C173.218 239.294 161.889 254.132 149.544 268.971C140.793 279.436 132.277 290.136 123.995 301.07C115.869 312.003 108.681 323.718 102.431 336.214H214.94V414H0.93758Z" fill="#1A1A1A"/>
<path d="M280.571 414V96.2954C274.945 103.012 267.21 108.479 257.366 112.696C247.521 116.757 238.223 118.788 229.473 118.788V52.9508C237.755 51.7012 246.662 49.0458 256.194 44.9847C265.726 40.7674 274.555 35.0662 282.68 27.8812C290.962 20.5399 297.291 11.7148 301.666 1.40577H368V414H280.571Z" fill="#1A1A1A"/>
</svg>
