<svg width="400" height="683" viewBox="0 0 400 683" fill="none" xmlns="http://www.w3.org/2000/svg">
<path d="M400 0H0V683H400V0Z" fill="white"/>
<path d="M400 0H0V555H400V0Z" fill="#1A1A1A"/>
<path d="M16.9376 430V410.319C16.9376 389.857 20.0628 371.504 26.3134 355.26C32.7202 338.859 40.924 323.708 50.9248 309.806C60.9257 295.749 71.4735 282.003 82.5681 268.57C93.3503 255.45 103.586 242.017 113.274 228.272C123.118 214.37 131.088 199.375 137.182 183.287C143.433 167.042 146.558 148.845 146.558 128.696C146.558 119.012 145.073 110.733 142.104 103.861C139.292 96.8319 133.354 93.3175 124.29 93.3175C110.539 93.3175 103.664 105.579 103.664 130.102V180.475H16.9376C16.7813 176.883 16.5469 172.822 16.2344 168.292C16.0781 163.762 16 159.389 16 155.171C16 125.494 19.1253 100.346 25.3758 79.7283C31.6263 58.9542 42.6429 43.1783 58.4255 32.4007C74.3643 21.4669 96.71 16 125.462 16C159.684 16 186.249 25.6061 205.157 44.8183C224.221 64.0306 233.753 91.4431 233.753 127.056C233.753 151.267 230.628 172.509 224.377 190.784C218.127 208.903 209.845 225.46 199.531 240.455C189.218 255.294 177.889 270.132 165.544 284.971C156.793 295.436 148.277 306.136 139.995 317.07C131.869 328.003 124.681 339.718 118.431 352.214H230.94V430H16.9376Z" fill="white"/>
<path d="M296.571 430V112.295C290.945 119.012 283.21 124.479 273.366 128.696C263.521 132.757 254.223 134.788 245.473 134.788V68.9508C253.755 67.7012 262.662 65.0458 272.194 60.9847C281.726 56.7674 290.555 51.0662 298.68 43.8812C306.962 36.5399 313.291 27.7148 317.666 17.4058H384V430H296.571Z" fill="white"/>
<path d="M16 468.85V447.344H101.342V468.85H71.8077V545.656H45.534V468.85H16Z" fill="white"/>
<path d="M201.882 496.5C201.882 507.445 199.756 516.678 195.505 524.198C191.254 531.687 185.517 537.367 178.293 541.24C171.069 545.08 163.015 547 154.129 547C145.179 547 137.092 545.064 129.869 541.192C122.677 537.287 116.956 531.591 112.705 524.102C108.485 516.582 106.376 507.381 106.376 496.5C106.376 485.555 108.485 476.338 112.705 468.85C116.956 461.329 122.677 455.649 129.869 451.808C137.092 447.936 145.179 446 154.129 446C163.015 446 171.069 447.936 178.293 451.808C185.517 455.649 191.254 461.329 195.505 468.85C199.756 476.338 201.882 485.555 201.882 496.5ZM174.457 496.5C174.457 490.612 173.674 485.651 172.108 481.619C170.574 477.554 168.289 474.482 165.252 472.402C162.248 470.29 158.54 469.234 154.129 469.234C149.718 469.234 145.994 470.29 142.958 472.402C139.953 474.482 137.668 477.554 136.102 481.619C134.567 485.651 133.8 490.612 133.8 496.5C133.8 502.388 134.567 507.365 136.102 511.429C137.668 515.461 139.953 518.534 142.958 520.646C145.994 522.726 149.718 523.766 154.129 523.766C158.54 523.766 162.248 522.726 165.252 520.646C168.289 518.534 170.574 515.461 172.108 511.429C173.674 507.365 174.457 502.388 174.457 496.5Z" fill="white"/>
<path d="M251.996 545.656H214.216V447.344H251.613C261.713 447.344 270.439 449.312 277.79 453.249C285.174 457.153 290.863 462.785 294.859 470.146C298.886 477.474 300.9 486.259 300.9 496.5C300.9 506.741 298.902 515.542 294.907 522.902C290.911 530.231 285.254 535.863 277.934 539.799C270.615 543.704 261.969 545.656 251.996 545.656ZM240.873 522.998H251.037C255.896 522.998 260.035 522.214 263.455 520.646C266.907 519.078 269.528 516.374 271.318 512.533C273.14 508.693 274.051 503.349 274.051 496.5C274.051 489.651 273.124 484.307 271.27 480.467C269.448 476.626 266.763 473.922 263.215 472.354C259.699 470.786 255.384 470.002 250.27 470.002H240.873V522.998Z" fill="white"/>
<path d="M313.234 545.656V447.344H384V468.85H339.891V485.747H380.356V507.253H339.891V524.15H383.808V545.656H313.234Z" fill="white"/>
<path fill-rule="evenodd" clip-rule="evenodd" d="M392 563H8V675H392V563ZM0 555V683H400V555H0Z" fill="#1A1A1A"/>
<path d="M80.5996 583V611H76.7168L62.4844 590.465H62.2246V611H58V583H61.9102L76.1562 603.562H76.416V583H80.5996Z" fill="#1A1A1A"/>
<path d="M101.961 611H97.4764L107.553 583H112.433L122.51 611H118.025L110.109 588.086H109.89L101.961 611ZM102.713 600.035H117.26V603.59H102.713V600.035Z" fill="#1A1A1A"/>
<path d="M134.697 586.637V583H156.367V586.637H147.631V611H143.42V586.637H134.697Z" fill="#1A1A1A"/>
<path d="M172.608 586.637V583H194.278V586.637H185.542V611H181.331V586.637H172.608Z" fill="#1A1A1A"/>
<path d="M210.956 611H206.472L216.548 583H221.429L231.505 611H227.021L219.105 588.086H218.886L210.956 611ZM211.708 600.035H226.255V603.59H211.708V600.035Z" fill="#1A1A1A"/>
<path d="M248.382 611V583H258.362C260.532 583 262.332 583.374 263.763 584.121C265.203 584.868 266.278 585.903 266.989 587.225C267.7 588.537 268.056 590.055 268.056 591.777C268.056 593.491 267.696 594.999 266.976 596.303C266.265 597.597 265.189 598.604 263.749 599.324C262.318 600.044 260.518 600.404 258.349 600.404H250.788V596.768H257.966C259.333 596.768 260.445 596.572 261.302 596.18C262.168 595.788 262.801 595.218 263.202 594.471C263.603 593.723 263.804 592.826 263.804 591.777C263.804 590.72 263.599 589.804 263.189 589.029C262.788 588.255 262.154 587.662 261.288 587.252C260.431 586.833 259.306 586.623 257.911 586.623H252.607V611H248.382ZM262.204 598.367L269.122 611H264.31L257.528 598.367H262.204Z" fill="#1A1A1A"/>
<path d="M288.395 611H283.911L293.987 583H298.868L308.944 611H304.459L296.543 588.086H296.325L288.395 611ZM289.147 600.035H303.694V603.59H289.147V600.035Z" fill="#1A1A1A"/>
<path d="M321.131 586.637V583H342.801V586.637H334.065V611H329.854V586.637H321.131Z" fill="#1A1A1A"/>
<path d="M138.898 634.511C138.756 633.255 138.172 632.282 137.146 631.591C136.12 630.893 134.828 630.543 133.271 630.543C132.156 630.543 131.192 630.72 130.378 631.074C129.564 631.419 128.932 631.897 128.481 632.507C128.038 633.109 127.817 633.794 127.817 634.564C127.817 635.21 127.967 635.767 128.268 636.236C128.578 636.705 128.98 637.099 129.476 637.417C129.98 637.727 130.52 637.988 131.095 638.2C131.67 638.403 132.223 638.572 132.754 638.704L135.408 639.394C136.275 639.607 137.164 639.894 138.075 640.257C138.986 640.62 139.831 641.097 140.609 641.69C141.388 642.283 142.016 643.017 142.494 643.893C142.98 644.769 143.224 645.817 143.224 647.038C143.224 648.577 142.826 649.944 142.029 651.138C141.242 652.333 140.096 653.275 138.592 653.965C137.097 654.655 135.288 655 133.165 655C131.13 655 129.37 654.677 127.883 654.031C126.397 653.385 125.234 652.47 124.393 651.284C123.553 650.09 123.088 648.675 123 647.038H127.114C127.193 648.02 127.512 648.838 128.069 649.493C128.635 650.139 129.356 650.621 130.232 650.939C131.117 651.249 132.086 651.404 133.138 651.404C134.297 651.404 135.328 651.222 136.23 650.86C137.142 650.488 137.858 649.975 138.38 649.32C138.902 648.657 139.163 647.883 139.163 646.998C139.163 646.193 138.933 645.534 138.473 645.021C138.022 644.508 137.407 644.083 136.628 643.747C135.859 643.411 134.987 643.114 134.014 642.858L130.803 641.982C128.627 641.389 126.901 640.518 125.627 639.368C124.362 638.218 123.73 636.696 123.73 634.803C123.73 633.237 124.155 631.87 125.004 630.702C125.853 629.535 127.003 628.628 128.454 627.982C129.905 627.327 131.542 627 133.364 627C135.204 627 136.827 627.323 138.234 627.969C139.65 628.615 140.764 629.504 141.578 630.636C142.392 631.76 142.817 633.051 142.852 634.511H138.898Z" fill="#1A1A1A"/>
<path d="M160.58 654.549V627.372H170.267C172.373 627.372 174.12 627.734 175.509 628.46C176.907 629.185 177.951 630.189 178.641 631.472C179.331 632.746 179.676 634.219 179.676 635.891C179.676 637.554 179.326 639.018 178.627 640.283C177.937 641.54 176.893 642.517 175.496 643.216C174.107 643.915 172.359 644.264 170.254 644.264H162.915V640.735H169.882C171.209 640.735 172.289 640.544 173.12 640.164C173.961 639.784 174.576 639.231 174.965 638.505C175.354 637.78 175.549 636.908 175.549 635.891C175.549 634.865 175.35 633.976 174.951 633.224C174.562 632.472 173.947 631.897 173.107 631.499C172.275 631.092 171.183 630.888 169.829 630.888H164.68V654.549H160.58ZM173.996 642.287L180.711 654.549H176.04L169.458 642.287H173.996Z" fill="#1A1A1A"/>
<path d="M201.222 627.372V654.549H197.121V627.372H201.222Z" fill="#1A1A1A"/>
<path d="M219.65 654.549V627.372H223.75V651.019H236.065V654.549H219.65Z" fill="#1A1A1A"/>
<path d="M256.881 654.549H252.529L262.309 627.372H267.046L276.826 654.549H272.474L264.79 632.308H264.578L256.881 654.549ZM257.611 643.906H271.731V647.356H257.611V643.906Z" fill="#1A1A1A"/>
</svg>
